<?xml version="1.0" encoding="UTF-8"?><svg id="Layer_2" xmlns="http://www.w3.org/2000/svg" viewBox="0 0 251 250.63"><defs><style>.cls-1{fill:#54666b;}.cls-1,.cls-2,.cls-3,.cls-4,.cls-5,.cls-6{stroke-width:0px;}.cls-2{fill:#fdc550;}.cls-3{fill:#a1c4ce;}.cls-4{fill:#fef599;}.cls-5{fill:#333e42;}.cls-6{fill:#e89c05;}</style></defs><g id="Layer_1-2"><polyline class="cls-6" points="0 0 54.69 0 56.09 4.5 54.69 7.55 56.09 170.34 56.12 178.08 54.66 178.08 0 178.08 0 174.26 .04 4.21"/><polyline class="cls-6" points="251 0 251 178.08 196.5 178.08 196.31 171.86 197.72 6.03 197.72 0"/><polygon class="cls-2" points="197.72 177.87 197.72 194.91 160.74 194.91 159.85 187.37 159.83 152.12 151.08 143.03 96.87 143.03 90.37 142.92 88.34 145.75 88.34 187.32 89.74 194.91 54.69 194.91 54.69 0 197.72 0 197.72 177.87 197.72 177.87"/><polygon class="cls-4" points="161.26 143.03 161.26 143.59 161.26 194.91 88.34 194.91 88 142.73 161.26 143.03"/><rect class="cls-4" x="80.99" y="44.01" width="17.55" height="34.98" rx="8.66" ry="8.66"/><circle class="cls-4" cx="161.68" cy="61.5" r="16.09"/><rect class="cls-1" x="72.18" y="142.44" width="108.18" height="108.18"/><rect class="cls-3" x="96.08" y="154.8" width="15.15" height="36.62" rx="7.58" ry="7.58" transform="translate(-92.04 124) rotate(-45)"/><rect class="cls-3" x="141.44" y="154.8" width="15.15" height="36.62" rx="7.58" ry="7.58" transform="translate(131.98 400.89) rotate(-135)"/><rect class="cls-3" x="119.04" y="204.39" width="15.15" height="30.96" rx="7.58" ry="7.58" transform="translate(346.49 93.26) rotate(90)"/><polygon class="cls-5" points="96.01 97.78 118.35 142.44 72.18 142.44 96.01 97.78"/><polyline class="cls-5" points="134.24 142.44 158.07 97.78 180.41 142.44"/></g></svg>